<svg xmlns="http://www.w3.org/2000/svg" xmlns:xlink="http://www.w3.org/1999/xlink" width="60" zoomAndPan="magnify" viewBox="0 0 45 44.999999" height="60" preserveAspectRatio="xMidYMid meet" version="1.0"><defs><clipPath id="38ad537581"><path d="M 2.066406 2.066406 L 43.300781 2.066406 L 43.300781 43.300781 L 2.066406 43.300781 Z M 2.066406 2.066406 " clip-rule="nonzero"/></clipPath><clipPath id="5a7ddc3725"><path d="M 22.683594 2.066406 C 11.296875 2.066406 2.066406 11.296875 2.066406 22.683594 C 2.066406 34.070312 11.296875 43.300781 22.683594 43.300781 C 34.070312 43.300781 43.300781 34.070312 43.300781 22.683594 C 43.300781 11.296875 34.070312 2.066406 22.683594 2.066406 " clip-rule="nonzero"/></clipPath><clipPath id="2f94d6d0c2"><path d="M 15.453125 10.335938 L 23.070312 10.335938 L 23.070312 23.894531 L 15.453125 23.894531 Z M 15.453125 10.335938 " clip-rule="nonzero"/></clipPath><clipPath id="03a10ec547"><path d="M 23.070312 16.351562 L 23.070312 14.972656 L 15.453125 14.972656 L 15.453125 19.261719 L 23.070312 19.261719 L 23.070312 16.351562 M 15.453125 19.261719 L 23.070312 23.878906 L 23.070312 19.261719 L 15.453125 19.261719 M 15.453125 10.355469 L 23.070312 10.355469 L 23.070312 14.972656 L 15.453125 14.972656 L 15.453125 10.355469 " clip-rule="nonzero"/></clipPath><clipPath id="b35cba14b1"><path d="M 23.070312 10.335938 L 30.6875 10.335938 L 30.6875 23.894531 L 23.070312 23.894531 Z M 23.070312 10.335938 " clip-rule="nonzero"/></clipPath><clipPath id="b27707f188"><path d="M 23.070312 14.972656 L 23.070312 19.261719 L 30.6875 19.261719 L 30.6875 14.972656 L 23.070312 14.972656 M 23.070312 10.355469 L 30.6875 10.355469 L 30.6875 14.972656 L 23.070312 14.972656 L 23.070312 10.355469 M 23.070312 23.878906 L 30.6875 19.261719 L 23.070312 19.261719 L 23.070312 23.878906 " clip-rule="nonzero"/></clipPath><clipPath id="58f56253b5"><path d="M 15.453125 5.734375 L 30.6875 5.734375 L 30.6875 14.996094 L 15.453125 14.996094 Z M 15.453125 5.734375 " clip-rule="nonzero"/></clipPath><clipPath id="0fe5ad3d54"><path d="M 23.070312 14.972656 L 15.453125 10.355469 L 23.070312 5.734375 L 30.6875 10.355469 L 23.070312 14.972656 " clip-rule="nonzero"/></clipPath><clipPath id="cff1d1f42d"><path d="M 23.070312 22.589844 L 30.6875 22.589844 L 30.6875 36.148438 L 23.070312 36.148438 Z M 23.070312 22.589844 " clip-rule="nonzero"/></clipPath><clipPath id="5d929caad1"><path d="M 30.6875 28.605469 L 30.6875 27.226562 L 23.070312 27.226562 L 23.070312 31.515625 L 30.6875 31.515625 L 30.6875 28.605469 M 23.070312 31.515625 L 30.6875 36.132812 L 30.6875 31.515625 L 23.070312 31.515625 M 23.070312 22.609375 L 30.6875 22.609375 L 30.6875 27.226562 L 23.070312 27.226562 L 23.070312 22.609375 " clip-rule="nonzero"/></clipPath><clipPath id="33729c775a"><path d="M 30.6875 22.589844 L 38.304688 22.589844 L 38.304688 36.148438 L 30.6875 36.148438 Z M 30.6875 22.589844 " clip-rule="nonzero"/></clipPath><clipPath id="7875fe31e7"><path d="M 30.6875 27.226562 L 30.6875 31.515625 L 38.304688 31.515625 L 38.304688 27.226562 L 30.6875 27.226562 M 30.6875 22.609375 L 38.304688 22.609375 L 38.304688 27.226562 L 30.6875 27.226562 L 30.6875 22.609375 M 30.6875 36.132812 L 38.304688 31.515625 L 30.6875 31.515625 L 30.6875 36.132812 " clip-rule="nonzero"/></clipPath><clipPath id="e2abef9ac3"><path d="M 23.070312 17.988281 L 38.304688 17.988281 L 38.304688 27.253906 L 23.070312 27.253906 Z M 23.070312 17.988281 " clip-rule="nonzero"/></clipPath><clipPath id="9519317dac"><path d="M 30.6875 27.226562 L 23.070312 22.609375 L 30.6875 17.988281 L 38.304688 22.609375 L 30.6875 27.226562 " clip-rule="nonzero"/></clipPath><clipPath id="462c8b7103"><path d="M 7.835938 22.589844 L 15.453125 22.589844 L 15.453125 36.148438 L 7.835938 36.148438 Z M 7.835938 22.589844 " clip-rule="nonzero"/></clipPath><clipPath id="d2fd0acbe1"><path d="M 15.453125 28.605469 L 15.453125 27.226562 L 7.835938 27.226562 L 7.835938 31.515625 L 15.453125 31.515625 L 15.453125 28.605469 M 7.835938 31.515625 L 15.453125 36.132812 L 15.453125 31.515625 L 7.835938 31.515625 M 7.835938 22.609375 L 15.453125 22.609375 L 15.453125 27.226562 L 7.835938 27.226562 L 7.835938 22.609375 " clip-rule="nonzero"/></clipPath><clipPath id="90ce02e0cf"><path d="M 15.453125 22.589844 L 23.070312 22.589844 L 23.070312 36.148438 L 15.453125 36.148438 Z M 15.453125 22.589844 " clip-rule="nonzero"/></clipPath><clipPath id="9ec4b5bbc1"><path d="M 15.453125 27.226562 L 15.453125 31.515625 L 23.070312 31.515625 L 23.070312 27.226562 L 15.453125 27.226562 M 15.453125 22.609375 L 23.070312 22.609375 L 23.070312 27.226562 L 15.453125 27.226562 L 15.453125 22.609375 M 15.453125 36.132812 L 23.070312 31.515625 L 15.453125 31.515625 L 15.453125 36.132812 " clip-rule="nonzero"/></clipPath><clipPath id="e41d12c0a3"><path d="M 7.835938 17.988281 L 23.070312 17.988281 L 23.070312 27.253906 L 7.835938 27.253906 Z M 7.835938 17.988281 " clip-rule="nonzero"/></clipPath><clipPath id="0420633a9a"><path d="M 15.453125 27.226562 L 7.835938 22.609375 L 15.453125 17.988281 L 23.070312 22.609375 L 15.453125 27.226562 " clip-rule="nonzero"/></clipPath></defs><g clip-path="url(#38ad537581)"><g clip-path="url(#5a7ddc3725)"><path fill="#000000" d="M 2.066406 2.066406 L 43.300781 2.066406 L 43.300781 43.300781 L 2.066406 43.300781 Z M 2.066406 2.066406 " fill-opacity="1" fill-rule="nonzero"/></g></g><g clip-path="url(#2f94d6d0c2)"><g clip-path="url(#03a10ec547)"><path fill="#6f3284" d="M 15.453125 5.734375 L 30.6875 5.734375 L 30.6875 23.894531 L 15.453125 23.894531 Z M 15.453125 5.734375 " fill-opacity="1" fill-rule="nonzero"/></g></g><g clip-path="url(#b35cba14b1)"><g clip-path="url(#b27707f188)"><path fill="#6f3284" d="M 15.453125 5.734375 L 30.6875 5.734375 L 30.6875 23.894531 L 15.453125 23.894531 Z M 15.453125 5.734375 " fill-opacity="1" fill-rule="nonzero"/></g></g><g clip-path="url(#58f56253b5)"><g clip-path="url(#0fe5ad3d54)"><path fill="#f487d2" d="M 15.453125 5.734375 L 30.6875 5.734375 L 30.6875 23.894531 L 15.453125 23.894531 Z M 15.453125 5.734375 " fill-opacity="1" fill-rule="nonzero"/></g></g><g clip-path="url(#cff1d1f42d)"><g clip-path="url(#5d929caad1)"><path fill="#6f3284" d="M 23.070312 17.988281 L 38.304688 17.988281 L 38.304688 36.148438 L 23.070312 36.148438 Z M 23.070312 17.988281 " fill-opacity="1" fill-rule="nonzero"/></g></g><g clip-path="url(#33729c775a)"><g clip-path="url(#7875fe31e7)"><path fill="#af47ab" d="M 23.070312 17.988281 L 38.304688 17.988281 L 38.304688 36.148438 L 23.070312 36.148438 Z M 23.070312 17.988281 " fill-opacity="1" fill-rule="nonzero"/></g></g><g clip-path="url(#e2abef9ac3)"><g clip-path="url(#9519317dac)"><path fill="#f487d2" d="M 23.070312 17.988281 L 38.304688 17.988281 L 38.304688 36.148438 L 23.070312 36.148438 Z M 23.070312 17.988281 " fill-opacity="1" fill-rule="nonzero"/></g></g><g clip-path="url(#462c8b7103)"><g clip-path="url(#d2fd0acbe1)"><path fill="#6f3284" d="M 7.835938 17.988281 L 23.070312 17.988281 L 23.070312 36.148438 L 7.835938 36.148438 Z M 7.835938 17.988281 " fill-opacity="1" fill-rule="nonzero"/></g></g><g clip-path="url(#90ce02e0cf)"><g clip-path="url(#9ec4b5bbc1)"><path fill="#af47ab" d="M 7.835938 17.988281 L 23.070312 17.988281 L 23.070312 36.148438 L 7.835938 36.148438 Z M 7.835938 17.988281 " fill-opacity="1" fill-rule="nonzero"/></g></g><g clip-path="url(#e41d12c0a3)"><g clip-path="url(#0420633a9a)"><path fill="#f487d2" d="M 7.835938 17.988281 L 23.070312 17.988281 L 23.070312 36.148438 L 7.835938 36.148438 Z M 7.835938 17.988281 " fill-opacity="1" fill-rule="nonzero"/></g></g></svg>